<?xml version="1.0" encoding="UTF-8" standalone="no"?>
<svg xmlns="http://www.w3.org/2000/svg" width="805" height="730" viewBox="-855 -1005 1610 1460">
<title>Externally-rounded Classical labyrinth</title>
<rect x="-855" y="-1005" width="1610" height="1460" fill="#8B9692"/>
<path stroke-width="25" stroke-linejoin="round" stroke-linecap="round"
stroke="#ffffff" fill="none" d="M200,200
C420.914,200,600,20.9138,600-200
C600-558.985,308.985-850-50-850
C-408.985-850-700-558.985-700-200
C-700,76.1423-476.142,300-200,300
C-144.772,300-100,255.228-100,200V100H-200
C-365.685,100-500-34.3147-500-200
C-500-448.528-298.528-650-50-650
C198.528-650,400-448.528,400-200
C400-89.5432,310.457,0,200,0H-200
C-310.457,0-400-89.5432-400-200
C-400-393.3-243.3-550-50-550
C143.3-550,300-393.3,300-200
C300-144.772,255.228-100,200-100H100V-200
C100-282.843,32.8425-350-50-350
C-132.843-350-200-282.843-200-200
M-200,200
C-420.914,200-600,20.9138-600-200
C-600-503.757-353.757-750-50-750
C253.757-750,500-503.757,500-200
C500-34.3147,365.685,100,200,100H100V200
C100,255.228,144.772,300,200,300
C476.142,300,700,76.1423,700-200
C700-614.213,364.213-950-50-950
C-464.213-950-800-614.213-800-200
C-800,131.371-531.371,400-200,400
C-89.5432,400,0,310.457,0,200V-200
C0-227.614-22.386-250-50-250
C-77.614-250-100-227.614-100-200V-100H-200
C-255.228-100-300-144.772-300-200
C-300-338.071-188.071-450-50-450
C88.071-450,200-338.071,200-200"/></svg>